<svg xmlns="http://www.w3.org/2000/svg" xmlns:xlink="http://www.w3.org/1999/xlink" width="128" zoomAndPan="magnify" viewBox="0 0 96 95.999999" height="128" preserveAspectRatio="xMidYMid meet" version="1.0"><path fill="#1a56db" d="M 65.296875 6.503906 L 64.628906 6.847656 L 64.898438 7.375 L 65.472656 7.234375 Z M 62.625 4.875 L 62.625 4.125 Z M 62.609375 4.875 L 61.863281 4.8125 L 61.796875 5.628906 L 62.613281 5.625 Z M 56.464844 0.316406 L 55.730469 0.472656 L 55.914062 1.34375 L 56.738281 1.011719 Z M 41.632812 1.5 L 41.632812 2.25 L 42.347656 2.25 L 42.382812 1.535156 Z M 41.625 1.5 L 41.625 0.75 Z M 37.914062 3.453125 L 37.535156 4.097656 L 38.136719 4.453125 L 38.535156 3.875 Z M 29.304688 6.386719 L 29.359375 7.132812 L 29.828125 7.101562 L 30.003906 6.667969 Z M 29.625 14.625 C 27.554688 14.625 25.875 12.945312 25.875 10.875 L 24.375 10.875 C 24.375 13.773438 26.726562 16.125 29.625 16.125 Z M 66.375 14.625 L 29.625 14.625 L 29.625 16.125 L 66.375 16.125 Z M 70.125 10.875 C 70.125 12.945312 68.445312 14.625 66.375 14.625 L 66.375 16.125 C 69.273438 16.125 71.625 13.773438 71.625 10.875 Z M 66.375 7.125 C 68.445312 7.125 70.125 8.804688 70.125 10.875 L 71.625 10.875 C 71.625 7.976562 69.273438 5.625 66.375 5.625 Z M 65.472656 7.234375 C 65.761719 7.164062 66.0625 7.125 66.375 7.125 L 66.375 5.625 C 65.941406 5.625 65.519531 5.675781 65.117188 5.777344 Z M 62.625 5.625 C 63.046875 5.625 63.4375 5.734375 63.796875 5.953125 C 64.160156 6.175781 64.433594 6.472656 64.628906 6.847656 L 65.960938 6.164062 C 65.640625 5.539062 65.179688 5.042969 64.582031 4.675781 C 63.980469 4.308594 63.328125 4.125 62.625 4.125 Z M 62.613281 5.625 L 62.625 5.625 L 62.625 4.125 L 62.609375 4.125 Z M 61.875 4.5 C 61.875 4.605469 61.871094 4.710938 61.863281 4.8125 L 63.355469 4.9375 C 63.367188 4.792969 63.375 4.648438 63.375 4.5 Z M 58.125 0.75 C 60.195312 0.75 61.875 2.429688 61.875 4.5 L 63.375 4.5 C 63.375 1.601562 61.023438 -0.75 58.125 -0.75 Z M 56.738281 1.015625 C 57.183594 0.835938 57.644531 0.75 58.125 0.75 L 58.125 -0.75 C 57.441406 -0.75 56.785156 -0.617188 56.1875 -0.378906 L 56.738281 1.011719 Z M 49.125 -4.875 C 52.371094 -4.875 55.082031 -2.582031 55.730469 0.472656 L 57.195312 0.160156 C 56.40625 -3.570312 53.09375 -6.375 49.125 -6.375 Z M 42.382812 1.535156 C 42.558594 -2.035156 45.511719 -4.875 49.125 -4.875 L 49.125 -6.375 C 44.707031 -6.375 41.101562 -2.902344 40.886719 1.464844 Z M 41.625 2.25 L 41.632812 2.25 L 41.636719 0.75 L 41.625 0.75 Z M 38.535156 3.875 C 38.882812 3.367188 39.332031 2.96875 39.878906 2.679688 C 40.425781 2.394531 41.007812 2.25 41.625 2.25 L 41.625 0.75 C 39.828125 0.75 38.242188 1.652344 37.296875 3.027344 Z M 34.875 3.375 C 35.847656 3.375 36.753906 3.636719 37.535156 4.097656 L 38.296875 2.804688 C 37.242188 2.183594 36.101562 1.875 34.875 1.875 Z M 30.003906 6.664062 C 30.777344 4.734375 32.667969 3.375 34.875 3.375 L 34.875 1.875 C 32.035156 1.875 29.609375 3.628906 28.609375 6.105469 Z M 25.875 10.875 C 25.875 8.894531 27.414062 7.269531 29.359375 7.132812 L 29.253906 5.636719 C 26.527344 5.828125 24.375 8.101562 24.375 10.875 Z M 25.875 10.875 " fill-opacity="1" fill-rule="nonzero"/><path fill="#1a56db" d="M 65.296875 102.503906 L 64.628906 102.847656 L 64.898438 103.375 L 65.472656 103.234375 Z M 62.625 100.875 L 62.625 100.125 Z M 62.609375 100.875 L 61.863281 100.8125 L 61.796875 101.628906 L 62.613281 101.625 Z M 56.464844 96.316406 L 55.730469 96.472656 L 55.914062 97.34375 L 56.738281 97.015625 Z M 41.632812 97.5 L 41.632812 98.25 L 42.347656 98.25 L 42.382812 97.535156 Z M 41.625 97.5 L 41.625 96.75 Z M 37.914062 99.453125 L 37.535156 100.097656 L 38.136719 100.453125 L 38.535156 99.875 Z M 29.304688 102.386719 L 29.359375 103.132812 L 29.828125 103.101562 L 30.003906 102.664062 Z M 29.625 110.625 C 27.554688 110.625 25.875 108.945312 25.875 106.875 L 24.375 106.875 C 24.375 109.773438 26.726562 112.125 29.625 112.125 Z M 66.375 110.625 L 29.625 110.625 L 29.625 112.125 L 66.375 112.125 Z M 70.125 106.875 C 70.125 108.945312 68.445312 110.625 66.375 110.625 L 66.375 112.125 C 69.273438 112.125 71.625 109.773438 71.625 106.875 Z M 66.375 103.125 C 68.445312 103.125 70.125 104.804688 70.125 106.875 L 71.625 106.875 C 71.625 103.976562 69.273438 101.625 66.375 101.625 Z M 65.472656 103.234375 C 65.761719 103.164062 66.0625 103.125 66.375 103.125 L 66.375 101.625 C 65.941406 101.625 65.519531 101.675781 65.117188 101.777344 Z M 62.625 101.625 C 63.046875 101.625 63.4375 101.734375 63.796875 101.953125 C 64.160156 102.175781 64.433594 102.472656 64.628906 102.847656 L 65.960938 102.164062 C 65.640625 101.535156 65.179688 101.039062 64.578125 100.675781 C 63.980469 100.308594 63.328125 100.125 62.625 100.125 Z M 62.613281 101.625 L 62.625 101.625 L 62.625 100.125 L 62.609375 100.125 Z M 61.875 100.5 C 61.875 100.605469 61.871094 100.710938 61.863281 100.8125 L 63.355469 100.9375 C 63.367188 100.792969 63.375 100.648438 63.375 100.5 Z M 58.125 96.75 C 60.195312 96.75 61.875 98.429688 61.875 100.5 L 63.375 100.5 C 63.375 97.601562 61.023438 95.25 58.125 95.25 Z M 56.738281 97.015625 C 57.183594 96.835938 57.644531 96.75 58.125 96.75 L 58.125 95.25 C 57.453125 95.25 56.808594 95.371094 56.1875 95.621094 Z M 49.125 91.125 C 52.371094 91.125 55.082031 93.417969 55.730469 96.472656 L 57.195312 96.160156 C 56.40625 92.429688 53.09375 89.625 49.125 89.625 Z M 42.382812 97.535156 C 42.558594 93.964844 45.511719 91.125 49.125 91.125 L 49.125 89.625 C 44.707031 89.625 41.101562 93.097656 40.886719 97.464844 Z M 41.625 98.25 L 41.632812 98.25 L 41.636719 96.75 L 41.625 96.75 Z M 38.535156 99.875 C 38.882812 99.367188 39.332031 98.96875 39.878906 98.679688 C 40.425781 98.394531 41.007812 98.25 41.625 98.25 L 41.625 96.75 C 39.828125 96.75 38.242188 97.652344 37.296875 99.027344 Z M 34.875 99.375 C 35.847656 99.375 36.753906 99.636719 37.535156 100.097656 L 38.296875 98.804688 C 37.242188 98.183594 36.101562 97.875 34.875 97.875 Z M 30.003906 102.664062 C 30.777344 100.734375 32.667969 99.375 34.875 99.375 L 34.875 97.875 C 32.035156 97.875 29.609375 99.628906 28.609375 102.105469 Z M 25.875 106.875 C 25.875 104.894531 27.414062 103.269531 29.359375 103.132812 L 29.253906 101.636719 C 26.527344 101.828125 24.375 104.101562 24.375 106.875 Z M 25.875 106.875 " fill-opacity="1" fill-rule="nonzero"/><path fill="#1a56db" d="M 76.5 58.96875 L 75.75 58.953125 L 75.730469 59.941406 L 76.6875 59.695312 Z M 71.234375 54.441406 L 70.488281 54.515625 L 70.570312 55.316406 L 71.359375 55.179688 Z M 66.21875 52.542969 L 65.628906 53.007812 L 66.128906 53.644531 L 66.726562 53.09375 Z M 58.960938 50.8125 L 58.242188 51.015625 L 58.484375 51.863281 L 59.28125 51.492188 Z M 44.269531 52.308594 L 44.457031 53.035156 L 44.980469 52.902344 L 45.019531 52.363281 Z M 40.179688 55.886719 L 40.234375 56.632812 L 40.703125 56.601562 L 40.878906 56.164062 Z M 40.5 64.125 C 38.429688 64.125 36.75 62.445312 36.75 60.375 L 35.25 60.375 C 35.25 63.273438 37.601562 65.625 40.5 65.625 Z M 77.25 64.125 L 40.5 64.125 L 40.5 65.625 L 77.25 65.625 Z M 79.5 61.875 C 79.5 62.171875 79.441406 62.460938 79.328125 62.734375 C 79.214844 63.011719 79.050781 63.253906 78.839844 63.464844 C 78.628906 63.675781 78.386719 63.839844 78.109375 63.953125 C 77.835938 64.066406 77.546875 64.125 77.25 64.125 L 77.25 65.625 C 79.320312 65.625 81 63.945312 81 61.875 Z M 77.25 59.625 C 77.546875 59.625 77.835938 59.683594 78.109375 59.796875 C 78.386719 59.910156 78.628906 60.074219 78.839844 60.285156 C 79.050781 60.496094 79.214844 60.738281 79.328125 61.015625 C 79.441406 61.289062 79.5 61.578125 79.5 61.875 L 81 61.875 C 81 59.804688 79.320312 58.125 77.25 58.125 Z M 76.6875 59.695312 C 76.871094 59.648438 77.058594 59.625 77.25 59.625 L 77.25 58.125 C 76.925781 58.125 76.613281 58.164062 76.3125 58.242188 Z M 75.75 58.875 L 75.75 58.953125 L 77.25 58.984375 L 77.25 58.875 Z M 72 55.125 C 74.070312 55.125 75.75 56.804688 75.75 58.875 L 77.25 58.875 C 77.25 55.976562 74.898438 53.625 72 53.625 Z M 71.359375 55.179688 C 71.574219 55.144531 71.785156 55.125 72 55.125 L 72 53.625 C 71.695312 53.625 71.398438 53.652344 71.109375 53.699219 Z M 68.25 52.5 C 68.527344 52.5 68.796875 52.550781 69.058594 52.648438 C 69.316406 52.75 69.550781 52.890625 69.757812 53.078125 C 69.960938 53.265625 70.128906 53.480469 70.253906 53.730469 C 70.382812 53.976562 70.460938 54.238281 70.488281 54.515625 L 71.980469 54.363281 C 71.785156 52.472656 70.191406 51 68.25 51 Z M 66.726562 53.09375 C 67.15625 52.695312 67.664062 52.5 68.25 52.5 L 68.25 51 C 67.273438 51 66.425781 51.328125 65.710938 51.992188 Z M 61.5 51 C 63.175781 51 64.667969 51.785156 65.628906 53.007812 L 66.808594 52.078125 C 66.167969 51.265625 65.382812 50.628906 64.449219 50.179688 C 63.519531 49.726562 62.535156 49.5 61.5 49.5 Z M 59.28125 51.492188 C 59.984375 51.164062 60.722656 51 61.5 51 L 61.5 49.5 C 60.480469 49.5 59.511719 49.726562 58.644531 50.132812 Z M 51.75 46.125 C 54.832031 46.125 57.433594 48.191406 58.242188 51.015625 L 59.683594 50.605469 C 58.699219 47.152344 55.519531 44.625 51.75 44.625 Z M 45.019531 52.363281 C 45.28125 48.875 48.195312 46.125 51.75 46.125 L 51.75 44.625 C 47.402344 44.625 43.839844 47.988281 43.523438 52.253906 Z M 40.878906 56.164062 C 41.191406 55.390625 41.664062 54.726562 42.292969 54.171875 C 42.921875 53.621094 43.644531 53.242188 44.457031 53.035156 L 44.085938 51.582031 C 43.042969 51.847656 42.117188 52.335938 41.304688 53.042969 C 40.496094 53.753906 39.886719 54.605469 39.484375 55.605469 Z M 36.75 60.375 C 36.75 58.394531 38.289062 56.769531 40.234375 56.632812 L 40.128906 55.136719 C 37.402344 55.328125 35.25 57.601562 35.25 60.375 Z M 36.75 60.375 " fill-opacity="1" fill-rule="nonzero"/><path fill="#1a56db" d="M 21 81.363281 L 21.046875 80.613281 L 20.25 80.566406 L 20.25 81.363281 Z M 21.332031 69.375 L 20.589844 69.457031 L 20.664062 70.128906 L 21.339844 70.125 Z M 8.042969 68.628906 L 8.015625 69.378906 L 8.636719 69.398438 L 8.773438 68.792969 Z M 3.425781 72.445312 L 3.292969 73.183594 L 4.050781 73.320312 L 4.167969 72.558594 Z M 21 81.375 L 21 82.125 L 21.75 82.125 L 21.75 81.375 Z M 21.375 80.625 C 21.265625 80.625 21.15625 80.621094 21.046875 80.613281 L 20.953125 82.113281 C 21.09375 82.121094 21.234375 82.125 21.375 82.125 Z M 26.625 75.375 C 26.625 78.273438 24.273438 80.625 21.375 80.625 L 21.375 82.125 C 25.101562 82.125 28.125 79.101562 28.125 75.375 Z M 21.375 70.125 C 24.273438 70.125 26.625 72.476562 26.625 75.375 L 28.125 75.375 C 28.125 71.648438 25.101562 68.625 21.375 68.625 Z M 21.339844 70.125 L 21.375 70.125 L 21.375 68.625 L 21.328125 68.625 Z M 14.625 64.125 C 17.710938 64.125 20.257812 66.457031 20.589844 69.457031 L 22.078125 69.292969 C 21.664062 65.542969 18.484375 62.625 14.625 62.625 Z M 8.773438 68.792969 C 9.378906 66.121094 11.769531 64.125 14.625 64.125 L 14.625 62.625 C 11.054688 62.625 8.066406 65.121094 7.308594 68.460938 Z M 7.875 69.375 C 7.921875 69.375 7.96875 69.375 8.015625 69.378906 L 8.070312 67.878906 C 8.003906 67.875 7.941406 67.875 7.875 67.875 Z M 4.167969 72.558594 C 4.441406 70.757812 5.996094 69.375 7.875 69.375 L 7.875 67.875 C 5.242188 67.875 3.066406 69.808594 2.683594 72.332031 Z M 2.625 73.125 C 2.855469 73.125 3.078125 73.144531 3.292969 73.183594 L 3.558594 71.707031 C 3.25 71.652344 2.9375 71.625 2.625 71.625 Z M -1.125 76.875 C -1.125 74.804688 0.554688 73.125 2.625 73.125 L 2.625 71.625 C -0.273438 71.625 -2.625 73.976562 -2.625 76.875 Z M 2.625 80.625 C 0.554688 80.625 -1.125 78.945312 -1.125 76.875 L -2.625 76.875 C -2.625 79.773438 -0.273438 82.125 2.625 82.125 Z M 21 80.625 L 2.625 80.625 L 2.625 82.125 L 21 82.125 Z M 20.25 81.363281 L 20.25 81.375 L 21.75 81.375 L 21.75 81.363281 Z M 20.25 81.363281 " fill-opacity="1" fill-rule="nonzero"/><path fill="#1a56db" d="M 117 81.363281 L 117.046875 80.613281 L 116.25 80.566406 L 116.25 81.363281 Z M 117.332031 69.375 L 116.589844 69.457031 L 116.664062 70.128906 L 117.339844 70.125 Z M 104.042969 68.628906 L 104.015625 69.378906 L 104.636719 69.398438 L 104.773438 68.792969 Z M 99.425781 72.445312 L 99.292969 73.183594 L 100.050781 73.320312 L 100.167969 72.558594 Z M 117 81.375 L 117 82.125 L 117.75 82.125 L 117.75 81.375 Z M 117.375 80.625 C 117.265625 80.625 117.15625 80.621094 117.046875 80.613281 L 116.953125 82.113281 C 117.09375 82.121094 117.234375 82.125 117.375 82.125 Z M 122.625 75.375 C 122.625 78.273438 120.273438 80.625 117.375 80.625 L 117.375 82.125 C 121.101562 82.125 124.125 79.101562 124.125 75.375 Z M 117.375 70.125 C 120.273438 70.125 122.625 72.476562 122.625 75.375 L 124.125 75.375 C 124.125 71.648438 121.101562 68.625 117.375 68.625 Z M 117.339844 70.125 L 117.375 70.125 L 117.375 68.625 L 117.328125 68.625 Z M 110.625 64.125 C 113.710938 64.125 116.257812 66.457031 116.589844 69.457031 L 118.078125 69.292969 C 117.664062 65.542969 114.484375 62.625 110.625 62.625 Z M 104.773438 68.792969 C 105.378906 66.121094 107.769531 64.125 110.625 64.125 L 110.625 62.625 C 107.054688 62.625 104.066406 65.121094 103.308594 68.460938 Z M 103.875 69.375 C 103.921875 69.375 103.96875 69.375 104.015625 69.378906 L 104.070312 67.878906 C 104.003906 67.875 103.941406 67.875 103.875 67.875 Z M 100.167969 72.558594 C 100.441406 70.757812 101.996094 69.375 103.875 69.375 L 103.875 67.875 C 101.242188 67.875 99.066406 69.808594 98.683594 72.332031 Z M 98.625 73.125 C 98.855469 73.125 99.078125 73.144531 99.292969 73.183594 L 99.558594 71.707031 C 99.25 71.652344 98.9375 71.625 98.625 71.625 Z M 94.875 76.875 C 94.875 74.804688 96.554688 73.125 98.625 73.125 L 98.625 71.625 C 95.726562 71.625 93.375 73.976562 93.375 76.875 Z M 98.625 80.625 C 96.554688 80.625 94.875 78.945312 94.875 76.875 L 93.375 76.875 C 93.375 79.773438 95.726562 82.125 98.625 82.125 Z M 117 80.625 L 98.625 80.625 L 98.625 82.125 L 117 82.125 Z M 116.25 81.363281 L 116.25 81.375 L 117.75 81.375 L 117.75 81.363281 Z M 116.25 81.363281 " fill-opacity="1" fill-rule="nonzero"/><path fill="#1a56db" d="M 82.820312 28.894531 L 82.125 29.175781 L 82.335938 29.695312 L 82.890625 29.640625 Z M 71.300781 31.90625 L 71.195312 32.648438 L 72.171875 32.785156 L 72.042969 31.808594 Z M 70.875 37.125 C 70.578125 37.125 70.289062 37.066406 70.015625 36.953125 C 69.738281 36.839844 69.496094 36.675781 69.285156 36.464844 C 69.074219 36.253906 68.910156 36.011719 68.796875 35.734375 C 68.683594 35.460938 68.625 35.171875 68.625 34.875 L 67.125 34.875 C 67.125 36.945312 68.804688 38.625 70.875 38.625 Z M 83.25 37.125 L 70.875 37.125 L 70.875 38.625 L 83.25 38.625 Z M 87 33.375 C 87 35.445312 85.320312 37.125 83.25 37.125 L 83.25 38.625 C 86.148438 38.625 88.5 36.273438 88.5 33.375 Z M 83.25 29.625 C 85.320312 29.625 87 31.304688 87 33.375 L 88.5 33.375 C 88.5 30.476562 86.148438 28.125 83.25 28.125 Z M 82.890625 29.640625 C 83.011719 29.628906 83.128906 29.625 83.25 29.625 L 83.25 28.125 C 83.082031 28.125 82.914062 28.132812 82.75 28.148438 Z M 77.25 25.875 C 79.457031 25.875 81.351562 27.238281 82.125 29.175781 L 83.519531 28.617188 C 82.523438 26.132812 80.09375 24.375 77.25 24.375 Z M 72 31.125 C 72 28.226562 74.351562 25.875 77.25 25.875 L 77.25 24.375 C 73.523438 24.375 70.5 27.398438 70.5 31.125 Z M 72.042969 31.808594 C 72.015625 31.582031 72 31.355469 72 31.125 L 70.5 31.125 C 70.5 31.421875 70.519531 31.714844 70.554688 32 Z M 70.875 32.625 C 70.984375 32.625 71.089844 32.632812 71.195312 32.648438 L 71.40625 31.164062 C 71.230469 31.136719 71.054688 31.125 70.875 31.125 Z M 68.625 34.875 C 68.625 34.578125 68.683594 34.289062 68.796875 34.015625 C 68.910156 33.738281 69.074219 33.496094 69.285156 33.285156 C 69.496094 33.074219 69.738281 32.910156 70.015625 32.796875 C 70.289062 32.683594 70.578125 32.625 70.875 32.625 L 70.875 31.125 C 68.804688 31.125 67.125 32.804688 67.125 34.875 Z M 68.625 34.875 " fill-opacity="1" fill-rule="nonzero"/><path fill="#1a56db" d="M 7.734375 9.539062 L 7.019531 9.3125 L 6.796875 10.007812 L 7.488281 10.25 Z M 3.207031 6.128906 L 2.527344 6.441406 L 2.894531 7.242188 L 3.625 6.753906 Z M -8.199219 9.40625 L -8.304688 10.148438 L -7.328125 10.285156 L -7.457031 9.308594 Z M -8.625 14.625 C -8.921875 14.625 -9.210938 14.566406 -9.484375 14.453125 C -9.761719 14.339844 -10.003906 14.175781 -10.214844 13.964844 C -10.425781 13.753906 -10.589844 13.511719 -10.703125 13.234375 C -10.816406 12.960938 -10.875 12.671875 -10.875 12.375 L -12.375 12.375 C -12.375 14.445312 -10.695312 16.125 -8.625 16.125 Z M 6.75 14.625 L -8.625 14.625 L -8.625 16.125 L 6.75 16.125 Z M 9 12.375 C 9 12.671875 8.941406 12.960938 8.828125 13.234375 C 8.714844 13.511719 8.550781 13.753906 8.339844 13.964844 C 8.128906 14.175781 7.886719 14.339844 7.609375 14.453125 C 7.335938 14.566406 7.046875 14.625 6.75 14.625 L 6.75 16.125 C 8.820312 16.125 10.5 14.445312 10.5 12.375 Z M 7.488281 10.25 C 7.941406 10.40625 8.304688 10.679688 8.582031 11.070312 C 8.859375 11.460938 9 11.894531 9 12.375 L 10.5 12.375 C 10.5 10.734375 9.445312 9.339844 7.976562 8.832031 Z M 7.125 8.625 C 7.125 8.867188 7.085938 9.097656 7.019531 9.3125 L 8.445312 9.769531 C 8.566406 9.398438 8.625 9.015625 8.625 8.625 Z M 4.875 6.375 C 5.171875 6.375 5.460938 6.433594 5.734375 6.546875 C 6.011719 6.660156 6.253906 6.824219 6.464844 7.035156 C 6.675781 7.246094 6.839844 7.488281 6.953125 7.765625 C 7.066406 8.039062 7.125 8.328125 7.125 8.625 L 8.625 8.625 C 8.625 6.554688 6.945312 4.875 4.875 4.875 Z M 3.625 6.753906 C 4.003906 6.5 4.421875 6.375 4.875 6.375 L 4.875 4.875 C 4.105469 4.875 3.386719 5.109375 2.792969 5.507812 Z M -2.25 3.375 C -0.128906 3.375 1.695312 4.632812 2.527344 6.441406 L 3.890625 5.816406 C 2.824219 3.492188 0.476562 1.875 -2.25 1.875 Z M -7.5 8.625 C -7.5 5.726562 -5.148438 3.375 -2.25 3.375 L -2.25 1.875 C -5.976562 1.875 -9 4.898438 -9 8.625 Z M -7.457031 9.308594 C -7.484375 9.082031 -7.5 8.855469 -7.5 8.625 L -9 8.625 C -9 8.921875 -8.980469 9.214844 -8.945312 9.5 Z M -8.625 10.125 C -8.515625 10.125 -8.410156 10.132812 -8.304688 10.148438 L -8.09375 8.664062 C -8.269531 8.636719 -8.445312 8.625 -8.625 8.625 Z M -10.875 12.375 C -10.875 12.078125 -10.816406 11.789062 -10.703125 11.515625 C -10.589844 11.238281 -10.425781 10.996094 -10.214844 10.785156 C -10.003906 10.574219 -9.761719 10.410156 -9.484375 10.296875 C -9.210938 10.183594 -8.921875 10.125 -8.625 10.125 L -8.625 8.625 C -10.695312 8.625 -12.375 10.304688 -12.375 12.375 Z M -10.875 12.375 " fill-opacity="1" fill-rule="nonzero"/><path fill="#1a56db" d="M 103.734375 9.539062 L 103.019531 9.3125 L 102.796875 10.007812 L 103.488281 10.25 Z M 99.207031 6.128906 L 98.527344 6.441406 L 98.894531 7.242188 L 99.625 6.753906 Z M 87.800781 9.40625 L 87.695312 10.148438 L 88.671875 10.285156 L 88.542969 9.308594 Z M 87.375 14.625 C 87.078125 14.625 86.789062 14.566406 86.515625 14.453125 C 86.238281 14.339844 85.996094 14.175781 85.785156 13.964844 C 85.574219 13.753906 85.410156 13.511719 85.296875 13.234375 C 85.183594 12.960938 85.125 12.671875 85.125 12.375 L 83.625 12.375 C 83.625 14.445312 85.304688 16.125 87.375 16.125 Z M 102.75 14.625 L 87.375 14.625 L 87.375 16.125 L 102.75 16.125 Z M 105 12.375 C 105 12.671875 104.941406 12.960938 104.828125 13.234375 C 104.714844 13.511719 104.550781 13.753906 104.339844 13.964844 C 104.128906 14.175781 103.886719 14.339844 103.609375 14.453125 C 103.335938 14.566406 103.046875 14.625 102.75 14.625 L 102.75 16.125 C 104.820312 16.125 106.5 14.445312 106.5 12.375 Z M 103.488281 10.25 C 103.941406 10.40625 104.304688 10.679688 104.582031 11.070312 C 104.859375 11.460938 105 11.894531 105 12.375 L 106.5 12.375 C 106.5 10.734375 105.445312 9.339844 103.976562 8.832031 Z M 103.125 8.625 C 103.125 8.867188 103.085938 9.097656 103.019531 9.3125 L 104.445312 9.769531 C 104.566406 9.398438 104.625 9.015625 104.625 8.625 Z M 100.875 6.375 C 101.171875 6.375 101.460938 6.433594 101.734375 6.546875 C 102.011719 6.660156 102.253906 6.824219 102.464844 7.035156 C 102.675781 7.246094 102.839844 7.488281 102.953125 7.765625 C 103.066406 8.039062 103.125 8.328125 103.125 8.625 L 104.625 8.625 C 104.625 6.554688 102.945312 4.875 100.875 4.875 Z M 99.625 6.753906 C 100.003906 6.5 100.421875 6.375 100.875 6.375 L 100.875 4.875 C 100.105469 4.875 99.386719 5.109375 98.792969 5.507812 Z M 93.75 3.375 C 95.871094 3.375 97.695312 4.632812 98.527344 6.441406 L 99.890625 5.816406 C 98.824219 3.492188 96.476562 1.875 93.75 1.875 Z M 88.5 8.625 C 88.5 5.726562 90.851562 3.375 93.75 3.375 L 93.75 1.875 C 90.023438 1.875 87 4.898438 87 8.625 Z M 88.542969 9.308594 C 88.515625 9.082031 88.5 8.855469 88.5 8.625 L 87 8.625 C 87 8.921875 87.019531 9.214844 87.054688 9.5 Z M 87.375 10.125 C 87.484375 10.125 87.589844 10.132812 87.695312 10.148438 L 87.90625 8.664062 C 87.730469 8.636719 87.554688 8.625 87.375 8.625 Z M 85.125 12.375 C 85.125 12.078125 85.183594 11.789062 85.296875 11.515625 C 85.410156 11.238281 85.574219 10.996094 85.785156 10.785156 C 85.996094 10.574219 86.238281 10.410156 86.515625 10.296875 C 86.789062 10.183594 87.078125 10.125 87.375 10.125 L 87.375 8.625 C 85.304688 8.625 83.625 10.304688 83.625 12.375 Z M 85.125 12.375 " fill-opacity="1" fill-rule="nonzero"/><path fill="#1a56db" d="M 79.125 80.625 L 78.375 80.625 L 78.375 81.375 L 79.125 81.375 Z M 70.125 80.625 L 69.375 80.625 Z M 70.125 80.648438 L 70.03125 81.394531 L 70.878906 81.496094 L 70.875 80.644531 Z M 79.125 81.375 C 79.421875 81.375 79.710938 81.433594 79.984375 81.546875 C 80.261719 81.660156 80.503906 81.824219 80.714844 82.035156 C 80.925781 82.246094 81.089844 82.488281 81.203125 82.765625 C 81.316406 83.039062 81.375 83.328125 81.375 83.625 L 82.875 83.625 C 82.875 81.554688 81.195312 79.875 79.125 79.875 Z M 74.625 76.875 C 76.695312 76.875 78.375 78.554688 78.375 80.625 L 79.875 80.625 C 79.875 77.726562 77.523438 75.375 74.625 75.375 Z M 70.875 80.625 C 70.875 78.554688 72.554688 76.875 74.625 76.875 L 74.625 75.375 C 71.726562 75.375 69.375 77.726562 69.375 80.625 Z M 70.875 80.644531 L 70.875 80.625 L 69.375 80.625 L 69.375 80.648438 Z M 69.75 81.375 C 69.847656 81.375 69.941406 81.382812 70.03125 81.394531 L 70.21875 79.902344 C 70.0625 79.882812 69.90625 79.875 69.75 79.875 Z M 67.5 83.625 C 67.5 83.328125 67.558594 83.039062 67.671875 82.765625 C 67.785156 82.488281 67.949219 82.246094 68.160156 82.035156 C 68.371094 81.824219 68.613281 81.660156 68.890625 81.546875 C 69.164062 81.433594 69.453125 81.375 69.75 81.375 L 69.75 79.875 C 67.679688 79.875 66 81.554688 66 83.625 Z M 69.75 85.875 C 69.453125 85.875 69.164062 85.816406 68.890625 85.703125 C 68.613281 85.589844 68.371094 85.425781 68.160156 85.214844 C 67.949219 85.003906 67.785156 84.761719 67.671875 84.484375 C 67.558594 84.210938 67.5 83.921875 67.5 83.625 L 66 83.625 C 66 85.695312 67.679688 87.375 69.75 87.375 Z M 79.125 85.875 L 69.75 85.875 L 69.75 87.375 L 79.125 87.375 Z M 81.375 83.625 C 81.375 83.921875 81.316406 84.210938 81.203125 84.484375 C 81.089844 84.761719 80.925781 85.003906 80.714844 85.214844 C 80.503906 85.425781 80.261719 85.589844 79.984375 85.703125 C 79.710938 85.816406 79.421875 85.875 79.125 85.875 L 79.125 87.375 C 81.195312 87.375 82.875 85.695312 82.875 83.625 Z M 81.375 83.625 " fill-opacity="1" fill-rule="nonzero"/><path fill="#1a56db" d="M 25.125 28.515625 L 24.375 28.515625 L 24.375 29.207031 L 25.0625 29.261719 Z M 25.125 28.5 L 25.875 28.5 Z M 29.058594 31.695312 L 28.339844 31.914062 L 28.558594 32.632812 L 29.277344 32.414062 Z M 10.152344 28.507812 L 10.195312 29.257812 L 10.648438 29.234375 L 10.835938 28.820312 Z M 13.714844 25.90625 L 13.800781 26.652344 L 14.210938 26.601562 L 14.390625 26.230469 Z M 25.875 28.515625 L 25.875 28.5 L 24.375 28.5 L 24.375 28.515625 Z M 29.777344 31.480469 C 29.164062 29.457031 27.367188 27.949219 25.1875 27.769531 L 25.0625 29.261719 C 26.617188 29.390625 27.902344 30.46875 28.339844 31.914062 Z M 30.375 30.75 C 29.851562 30.75 29.339844 30.824219 28.839844 30.980469 L 29.277344 32.414062 C 29.636719 32.304688 30 32.25 30.375 32.25 Z M 35.625 36 C 35.625 33.101562 33.273438 30.75 30.375 30.75 L 30.375 32.25 C 32.445312 32.25 34.125 33.929688 34.125 36 Z M 30.375 41.25 C 33.273438 41.25 35.625 38.898438 35.625 36 L 34.125 36 C 34.125 38.070312 32.445312 39.75 30.375 39.75 Z M 30.375 39.75 L 10.5 39.75 L 10.5 41.25 L 30.375 41.25 Z M 3.75 34.5 C 3.75 38.226562 6.773438 41.25 10.5 41.25 L 10.5 39.75 C 7.601562 39.75 5.25 37.398438 5.25 34.5 Z M 10.109375 27.761719 C 6.5625 27.960938 3.75 30.902344 3.75 34.5 L 5.25 34.5 C 5.25 31.703125 7.4375 29.414062 10.195312 29.257812 Z M 13.625 25.164062 C 11.769531 25.382812 10.214844 26.566406 9.472656 28.199219 L 10.835938 28.820312 C 11.105469 28.226562 11.507812 27.734375 12.035156 27.347656 C 12.5625 26.960938 13.152344 26.730469 13.800781 26.652344 Z M 19.125 21.75 C 16.441406 21.75 14.125 23.316406 13.035156 25.582031 L 14.390625 26.230469 C 15.234375 24.464844 17.039062 23.25 19.125 23.25 Z M 25.875 28.5 C 25.875 24.773438 22.851562 21.75 19.125 21.75 L 19.125 23.25 C 22.023438 23.25 24.375 25.601562 24.375 28.5 Z M 25.875 28.5 " fill-opacity="1" fill-rule="nonzero"/></svg>