<svg xmlns="http://www.w3.org/2000/svg" xmlns:xlink="http://www.w3.org/1999/xlink" width="300" zoomAndPan="magnify" viewBox="0 0 224.87999 225" height="300" preserveAspectRatio="xMidYMid meet" version="1.0"><defs><g/><clipPath id="id1"><path d="M 0 22.546875 L 224.761719 22.546875 L 224.761719 202.453125 L 0 202.453125 Z M 0 22.546875 " clip-rule="nonzero"/></clipPath></defs><path fill="#ffffff" d="M 48.722656 112.5 C 48.722656 77.304688 77.242188 48.785156 112.441406 48.785156 C 147.636719 48.785156 176.15625 77.304688 176.15625 112.5 C 176.15625 147.695312 147.636719 176.214844 112.441406 176.214844 C 77.242188 176.214844 48.722656 147.695312 48.722656 112.5 " fill-opacity="1" fill-rule="nonzero"/><path fill="#cdeef6" d="M 221.132812 131.238281 L 3.746094 131.238281 L 3.746094 93.761719 L 221.132812 93.761719 L 221.132812 131.238281 " fill-opacity="1" fill-rule="nonzero"/><path fill="#7cb8eb" d="M 165.394531 131.238281 C 157.664062 153.070312 136.90625 168.71875 112.441406 168.71875 C 87.976562 168.71875 67.214844 153.070312 59.484375 131.238281 L 29.984375 131.238281 C 38.546875 169.832031 71.269531 198.703125 112.441406 198.703125 C 153.609375 198.703125 186.332031 169.832031 194.894531 131.238281 L 165.394531 131.238281 " fill-opacity="1" fill-rule="nonzero"/><path fill="#7cb8eb" d="M 59.484375 93.761719 C 67.214844 71.929688 87.976562 56.28125 112.441406 56.28125 C 136.90625 56.28125 157.664062 71.929688 165.394531 93.761719 L 194.894531 93.761719 C 186.332031 55.167969 153.609375 26.296875 112.441406 26.296875 C 71.269531 26.296875 38.546875 55.167969 29.984375 93.761719 L 59.484375 93.761719 " fill-opacity="1" fill-rule="nonzero"/><g clip-path="url(#id1)"><path fill="#4f83d1" d="M 217.382812 127.492188 L 7.496094 127.492188 L 7.496094 97.507812 L 217.382812 97.507812 Z M 65.121094 134.988281 L 159.757812 134.988281 C 151.136719 153.113281 132.777344 164.972656 112.441406 164.972656 C 92.105469 164.972656 73.746094 153.113281 65.121094 134.988281 Z M 112.441406 194.957031 C 76.015625 194.957031 44.699219 170.519531 34.785156 134.988281 L 56.90625 134.988281 C 66.015625 157.519531 88.003906 172.46875 112.441406 172.46875 C 136.875 172.46875 158.867188 157.519531 167.972656 134.988281 L 190.09375 134.988281 C 180.183594 170.519531 148.867188 194.957031 112.441406 194.957031 Z M 159.757812 90.011719 L 65.121094 90.011719 C 73.746094 71.886719 92.105469 60.027344 112.441406 60.027344 C 132.777344 60.027344 151.136719 71.886719 159.757812 90.011719 Z M 112.441406 30.042969 C 148.867188 30.042969 180.183594 54.480469 190.09375 90.011719 L 167.972656 90.011719 C 158.867188 67.480469 136.875 52.53125 112.441406 52.53125 C 88.003906 52.53125 66.015625 67.480469 56.90625 90.011719 L 34.785156 90.011719 C 44.699219 54.480469 76.015625 30.042969 112.441406 30.042969 Z M 112.441406 22.546875 C 71.929688 22.546875 37.304688 50.160156 27.101562 90.011719 L 0 90.011719 L 0 134.988281 L 27.101562 134.988281 C 37.304688 174.839844 71.929688 202.453125 112.441406 202.453125 C 152.949219 202.453125 187.574219 174.839844 197.78125 134.988281 L 224.878906 134.988281 L 224.878906 90.011719 L 197.78125 90.011719 C 187.574219 50.160156 152.949219 22.546875 112.441406 22.546875 " fill-opacity="1" fill-rule="nonzero"/></g><g fill="#4f83d1" fill-opacity="1"><g transform="translate(49.461769, 122.702942)"><g><path d="M 0.921875 0 L 0.921875 -1.0625 L 2.328125 -1.0625 L 2.328125 -19.328125 L 0.921875 -19.328125 L 0.921875 -20.390625 L 7.234375 -20.390625 L 7.234375 -19.328125 L 5.796875 -19.328125 L 5.796875 -1.0625 L 7.234375 -1.0625 L 7.234375 0 Z M 0.921875 0 "/></g></g></g><g fill="#4f83d1" fill-opacity="1"><g transform="translate(57.590897, 122.702942)"><g><path d="M 0.46875 0 L 0.46875 -1.0625 L 2.015625 -1.0625 L 2.015625 -14.1875 L 0.46875 -14.1875 L 0.46875 -15.25 L 5.40625 -15.25 L 5.40625 -13.765625 C 5.445312 -13.898438 5.570312 -14.101562 5.78125 -14.375 C 5.988281 -14.644531 6.28125 -14.890625 6.65625 -15.109375 C 7.039062 -15.328125 7.507812 -15.4375 8.0625 -15.4375 C 8.65625 -15.4375 9.195312 -15.304688 9.6875 -15.046875 C 10.1875 -14.785156 10.582031 -14.3125 10.875 -13.625 C 11.164062 -12.9375 11.3125 -11.941406 11.3125 -10.640625 L 11.3125 -1.0625 L 12.828125 -1.0625 L 12.828125 0 L 6.765625 0 L 6.765625 -1.0625 L 7.8125 -1.0625 L 7.8125 -10.5625 C 7.8125 -11.601562 7.734375 -12.363281 7.578125 -12.84375 C 7.429688 -13.332031 7.179688 -13.578125 6.828125 -13.578125 C 6.640625 -13.578125 6.46875 -13.507812 6.3125 -13.375 C 6.15625 -13.25 6.015625 -13.0625 5.890625 -12.8125 C 5.773438 -12.5625 5.679688 -12.269531 5.609375 -11.9375 C 5.546875 -11.613281 5.507812 -11.257812 5.5 -10.875 L 5.5 -1.0625 L 6.515625 -1.0625 L 6.515625 0 Z M 0.46875 0 "/></g></g></g><g fill="#4f83d1" fill-opacity="1"><g transform="translate(70.716962, 122.702942)"><g><path d="M 4.328125 0.03125 L 1.34375 -14.1875 L 0.1875 -14.1875 L 0.1875 -15.25 L 6.046875 -15.25 L 6.046875 -14.1875 L 5.0625 -14.1875 L 6.3125 -6.84375 L 7.609375 -14.1875 L 6.671875 -14.1875 L 6.671875 -15.25 L 9.84375 -15.25 L 9.84375 -14.1875 L 8.78125 -14.1875 L 5.96875 0.03125 Z M 4.328125 0.03125 "/></g></g></g><g fill="#4f83d1" fill-opacity="1"><g transform="translate(80.667134, 122.702942)"><g><path d="M 5.671875 0.328125 C 5.097656 0.328125 4.519531 0.160156 3.9375 -0.171875 C 3.363281 -0.503906 2.832031 -1.003906 2.34375 -1.671875 C 1.863281 -2.335938 1.484375 -3.171875 1.203125 -4.171875 C 0.921875 -5.171875 0.78125 -6.335938 0.78125 -7.671875 C 0.78125 -9.128906 0.925781 -10.351562 1.21875 -11.34375 C 1.519531 -12.34375 1.910156 -13.144531 2.390625 -13.75 C 2.878906 -14.351562 3.410156 -14.785156 3.984375 -15.046875 C 4.566406 -15.304688 5.128906 -15.4375 5.671875 -15.4375 C 6.222656 -15.4375 6.785156 -15.304688 7.359375 -15.046875 C 7.941406 -14.785156 8.472656 -14.351562 8.953125 -13.75 C 9.441406 -13.144531 9.835938 -12.34375 10.140625 -11.34375 C 10.441406 -10.351562 10.59375 -9.128906 10.59375 -7.671875 C 10.59375 -6.335938 10.445312 -5.171875 10.15625 -4.171875 C 9.875 -3.171875 9.492188 -2.335938 9.015625 -1.671875 C 8.546875 -1.003906 8.019531 -0.503906 7.4375 -0.171875 C 6.851562 0.160156 6.265625 0.328125 5.671875 0.328125 Z M 5.671875 -0.890625 C 6.109375 -0.890625 6.445312 -1.421875 6.6875 -2.484375 C 6.925781 -3.554688 7.046875 -5.285156 7.046875 -7.671875 C 7.046875 -10.054688 6.925781 -11.75 6.6875 -12.75 C 6.445312 -13.757812 6.109375 -14.265625 5.671875 -14.265625 C 5.265625 -14.265625 4.9375 -13.757812 4.6875 -12.75 C 4.4375 -11.75 4.3125 -10.054688 4.3125 -7.671875 C 4.3125 -5.285156 4.4375 -3.554688 4.6875 -2.484375 C 4.9375 -1.421875 5.265625 -0.890625 5.671875 -0.890625 Z M 5.671875 -0.890625 "/></g></g></g><g fill="#4f83d1" fill-opacity="1"><g transform="translate(92.074135, 122.702942)"><g><path d="M 0.40625 0 L 0.40625 -1.0625 L 1.90625 -1.0625 L 1.90625 -14.1875 L 0.40625 -14.1875 L 0.40625 -15.25 L 5.40625 -15.25 L 5.40625 -1.0625 L 6.921875 -1.0625 L 6.921875 0 Z M 3.65625 -17.171875 C 3.03125 -17.171875 2.5 -17.390625 2.0625 -17.828125 C 1.625 -18.273438 1.40625 -18.816406 1.40625 -19.453125 C 1.40625 -20.066406 1.625 -20.59375 2.0625 -21.03125 C 2.5 -21.46875 3.03125 -21.6875 3.65625 -21.6875 C 4.269531 -21.6875 4.796875 -21.46875 5.234375 -21.03125 C 5.671875 -20.59375 5.890625 -20.066406 5.890625 -19.453125 C 5.890625 -18.816406 5.671875 -18.273438 5.234375 -17.828125 C 4.796875 -17.390625 4.269531 -17.171875 3.65625 -17.171875 Z M 3.65625 -17.171875 "/></g></g></g><g fill="#4f83d1" fill-opacity="1"><g transform="translate(99.372869, 122.702942)"><g><path d="M 5.828125 0.3125 C 5.140625 0.3125 4.488281 0.128906 3.875 -0.234375 C 3.269531 -0.597656 2.734375 -1.128906 2.265625 -1.828125 C 1.796875 -2.523438 1.425781 -3.367188 1.15625 -4.359375 C 0.894531 -5.347656 0.765625 -6.460938 0.765625 -7.703125 C 0.765625 -9.109375 0.9375 -10.300781 1.28125 -11.28125 C 1.632812 -12.269531 2.070312 -13.066406 2.59375 -13.671875 C 3.125 -14.273438 3.6875 -14.71875 4.28125 -15 C 4.882812 -15.289062 5.4375 -15.4375 5.9375 -15.4375 C 6.675781 -15.4375 7.3125 -15.242188 7.84375 -14.859375 C 8.382812 -14.472656 8.796875 -13.960938 9.078125 -13.328125 C 9.359375 -12.703125 9.5 -12.035156 9.5 -11.328125 C 9.5 -10.710938 9.367188 -10.242188 9.109375 -9.921875 C 8.859375 -9.597656 8.53125 -9.4375 8.125 -9.4375 C 7.707031 -9.4375 7.367188 -9.570312 7.109375 -9.84375 C 6.847656 -10.125 6.71875 -10.503906 6.71875 -10.984375 C 6.71875 -11.285156 6.773438 -11.53125 6.890625 -11.71875 C 7.003906 -11.90625 7.117188 -12.09375 7.234375 -12.28125 C 7.359375 -12.476562 7.421875 -12.71875 7.421875 -13 C 7.421875 -13.457031 7.289062 -13.796875 7.03125 -14.015625 C 6.78125 -14.242188 6.488281 -14.359375 6.15625 -14.359375 C 5.789062 -14.359375 5.492188 -14.144531 5.265625 -13.71875 C 5.035156 -13.300781 4.859375 -12.757812 4.734375 -12.09375 C 4.609375 -11.4375 4.523438 -10.726562 4.484375 -9.96875 C 4.441406 -9.207031 4.421875 -8.488281 4.421875 -7.8125 C 4.421875 -7.019531 4.445312 -6.21875 4.5 -5.40625 C 4.550781 -4.59375 4.644531 -3.84375 4.78125 -3.15625 C 4.925781 -2.46875 5.132812 -1.914062 5.40625 -1.5 C 5.675781 -1.082031 6.023438 -0.875 6.453125 -0.875 C 7.015625 -0.875 7.445312 -1.035156 7.75 -1.359375 C 8.0625 -1.691406 8.285156 -2.066406 8.421875 -2.484375 L 9.234375 -1.796875 C 9.023438 -1.265625 8.632812 -0.78125 8.0625 -0.34375 C 7.5 0.09375 6.753906 0.3125 5.828125 0.3125 Z M 5.828125 0.3125 "/></g></g></g><g fill="#4f83d1" fill-opacity="1"><g transform="translate(109.497861, 122.702942)"><g><path d="M 5.859375 0.296875 C 5.085938 0.296875 4.390625 0.125 3.765625 -0.21875 C 3.148438 -0.570312 2.617188 -1.085938 2.171875 -1.765625 C 1.722656 -2.441406 1.378906 -3.273438 1.140625 -4.265625 C 0.898438 -5.253906 0.78125 -6.390625 0.78125 -7.671875 C 0.78125 -9.054688 0.929688 -10.238281 1.234375 -11.21875 C 1.546875 -12.207031 1.945312 -13.007812 2.4375 -13.625 C 2.9375 -14.25 3.476562 -14.707031 4.0625 -15 C 4.644531 -15.289062 5.21875 -15.4375 5.78125 -15.4375 C 6.445312 -15.4375 7.054688 -15.269531 7.609375 -14.9375 C 8.160156 -14.613281 8.640625 -14.148438 9.046875 -13.546875 C 9.453125 -12.941406 9.765625 -12.234375 9.984375 -11.421875 C 10.210938 -10.609375 10.328125 -9.710938 10.328125 -8.734375 C 10.328125 -8.523438 10.320312 -8.320312 10.3125 -8.125 C 10.3125 -7.9375 10.300781 -7.738281 10.28125 -7.53125 L 4.09375 -7.53125 L 4.09375 -8.59375 L 7 -8.59375 C 7 -10.03125 6.953125 -11.171875 6.859375 -12.015625 C 6.765625 -12.859375 6.628906 -13.457031 6.453125 -13.8125 C 6.273438 -14.175781 6.050781 -14.359375 5.78125 -14.359375 C 5.5 -14.359375 5.242188 -14.171875 5.015625 -13.796875 C 4.796875 -13.429688 4.617188 -12.789062 4.484375 -11.875 C 4.359375 -10.96875 4.296875 -9.707031 4.296875 -8.09375 C 4.296875 -6.875 4.328125 -5.8125 4.390625 -4.90625 C 4.460938 -4.007812 4.578125 -3.265625 4.734375 -2.671875 C 4.890625 -2.078125 5.09375 -1.632812 5.34375 -1.34375 C 5.59375 -1.050781 5.910156 -0.90625 6.296875 -0.90625 C 6.992188 -0.90625 7.546875 -1.082031 7.953125 -1.4375 C 8.367188 -1.800781 8.664062 -2.160156 8.84375 -2.515625 L 9.734375 -1.890625 C 9.503906 -1.347656 9.035156 -0.847656 8.328125 -0.390625 C 7.628906 0.0664062 6.804688 0.296875 5.859375 0.296875 Z M 5.859375 0.296875 "/></g></g></g><g fill="#4f83d1" fill-opacity="1"><g transform="translate(120.642632, 122.702942)"><g><path d="M 6.4375 0.296875 C 5.414062 0.296875 4.488281 -0.0703125 3.65625 -0.8125 C 2.820312 -1.5625 2.15625 -2.707031 1.65625 -4.25 C 1.164062 -5.800781 0.921875 -7.773438 0.921875 -10.171875 C 0.921875 -12.410156 1.203125 -14.3125 1.765625 -15.875 C 2.335938 -17.445312 3.066406 -18.640625 3.953125 -19.453125 C 4.835938 -20.273438 5.742188 -20.6875 6.671875 -20.6875 C 7.398438 -20.6875 8.035156 -20.503906 8.578125 -20.140625 C 9.117188 -19.773438 9.535156 -19.289062 9.828125 -18.6875 C 10.128906 -18.09375 10.28125 -17.4375 10.28125 -16.71875 C 10.28125 -16.125 10.15625 -15.648438 9.90625 -15.296875 C 9.664062 -14.953125 9.304688 -14.78125 8.828125 -14.78125 C 8.328125 -14.78125 7.960938 -14.953125 7.734375 -15.296875 C 7.503906 -15.640625 7.390625 -16.046875 7.390625 -16.515625 C 7.390625 -16.835938 7.457031 -17.101562 7.59375 -17.3125 C 7.738281 -17.53125 7.878906 -17.738281 8.015625 -17.9375 C 8.148438 -18.132812 8.21875 -18.378906 8.21875 -18.671875 C 8.21875 -18.929688 8.101562 -19.164062 7.875 -19.375 C 7.644531 -19.59375 7.363281 -19.703125 7.03125 -19.703125 C 6.550781 -19.703125 6.144531 -19.40625 5.8125 -18.8125 C 5.476562 -18.21875 5.210938 -17.4375 5.015625 -16.46875 C 4.816406 -15.507812 4.671875 -14.472656 4.578125 -13.359375 C 4.492188 -12.253906 4.453125 -11.191406 4.453125 -10.171875 C 4.453125 -8.628906 4.503906 -7.273438 4.609375 -6.109375 C 4.722656 -4.941406 4.867188 -3.960938 5.046875 -3.171875 C 5.234375 -2.390625 5.445312 -1.796875 5.6875 -1.390625 C 5.9375 -0.992188 6.195312 -0.796875 6.46875 -0.796875 C 6.644531 -0.796875 6.78125 -0.828125 6.875 -0.890625 C 6.976562 -0.953125 7.0625 -1.019531 7.125 -1.09375 L 7.125 -8.15625 L 5.984375 -8.15625 L 5.984375 -9.21875 L 11.546875 -9.21875 L 11.546875 -8.15625 L 10.296875 -8.15625 L 10.296875 0 L 9.25 0 C 9.238281 -0.03125 9.175781 -0.0820312 9.0625 -0.15625 C 8.945312 -0.238281 8.796875 -0.28125 8.609375 -0.28125 C 8.429688 -0.28125 8.253906 -0.234375 8.078125 -0.140625 C 7.898438 -0.046875 7.6875 0.046875 7.4375 0.140625 C 7.1875 0.242188 6.851562 0.296875 6.4375 0.296875 Z M 6.4375 0.296875 "/></g></g></g><g fill="#4f83d1" fill-opacity="1"><g transform="translate(132.705211, 122.702942)"><g><path d="M 5.859375 0.296875 C 5.085938 0.296875 4.390625 0.125 3.765625 -0.21875 C 3.148438 -0.570312 2.617188 -1.085938 2.171875 -1.765625 C 1.722656 -2.441406 1.378906 -3.273438 1.140625 -4.265625 C 0.898438 -5.253906 0.78125 -6.390625 0.78125 -7.671875 C 0.78125 -9.054688 0.929688 -10.238281 1.234375 -11.21875 C 1.546875 -12.207031 1.945312 -13.007812 2.4375 -13.625 C 2.9375 -14.25 3.476562 -14.707031 4.0625 -15 C 4.644531 -15.289062 5.21875 -15.4375 5.78125 -15.4375 C 6.445312 -15.4375 7.054688 -15.269531 7.609375 -14.9375 C 8.160156 -14.613281 8.640625 -14.148438 9.046875 -13.546875 C 9.453125 -12.941406 9.765625 -12.234375 9.984375 -11.421875 C 10.210938 -10.609375 10.328125 -9.710938 10.328125 -8.734375 C 10.328125 -8.523438 10.320312 -8.320312 10.3125 -8.125 C 10.3125 -7.9375 10.300781 -7.738281 10.28125 -7.53125 L 4.09375 -7.53125 L 4.09375 -8.59375 L 7 -8.59375 C 7 -10.03125 6.953125 -11.171875 6.859375 -12.015625 C 6.765625 -12.859375 6.628906 -13.457031 6.453125 -13.8125 C 6.273438 -14.175781 6.050781 -14.359375 5.78125 -14.359375 C 5.5 -14.359375 5.242188 -14.171875 5.015625 -13.796875 C 4.796875 -13.429688 4.617188 -12.789062 4.484375 -11.875 C 4.359375 -10.96875 4.296875 -9.707031 4.296875 -8.09375 C 4.296875 -6.875 4.328125 -5.8125 4.390625 -4.90625 C 4.460938 -4.007812 4.578125 -3.265625 4.734375 -2.671875 C 4.890625 -2.078125 5.09375 -1.632812 5.34375 -1.34375 C 5.59375 -1.050781 5.910156 -0.90625 6.296875 -0.90625 C 6.992188 -0.90625 7.546875 -1.082031 7.953125 -1.4375 C 8.367188 -1.800781 8.664062 -2.160156 8.84375 -2.515625 L 9.734375 -1.890625 C 9.503906 -1.347656 9.035156 -0.847656 8.328125 -0.390625 C 7.628906 0.0664062 6.804688 0.296875 5.859375 0.296875 Z M 5.859375 0.296875 "/></g></g></g><g fill="#4f83d1" fill-opacity="1"><g transform="translate(143.849983, 122.702942)"><g><path d="M 0.46875 0 L 0.46875 -1.0625 L 2.015625 -1.0625 L 2.015625 -14.1875 L 0.46875 -14.1875 L 0.46875 -15.25 L 5.40625 -15.25 L 5.40625 -13.765625 C 5.445312 -13.898438 5.570312 -14.101562 5.78125 -14.375 C 5.988281 -14.644531 6.28125 -14.890625 6.65625 -15.109375 C 7.039062 -15.328125 7.507812 -15.4375 8.0625 -15.4375 C 8.65625 -15.4375 9.195312 -15.304688 9.6875 -15.046875 C 10.1875 -14.785156 10.582031 -14.3125 10.875 -13.625 C 11.164062 -12.9375 11.3125 -11.941406 11.3125 -10.640625 L 11.3125 -1.0625 L 12.828125 -1.0625 L 12.828125 0 L 6.765625 0 L 6.765625 -1.0625 L 7.8125 -1.0625 L 7.8125 -10.5625 C 7.8125 -11.601562 7.734375 -12.363281 7.578125 -12.84375 C 7.429688 -13.332031 7.179688 -13.578125 6.828125 -13.578125 C 6.640625 -13.578125 6.46875 -13.507812 6.3125 -13.375 C 6.15625 -13.25 6.015625 -13.0625 5.890625 -12.8125 C 5.773438 -12.5625 5.679688 -12.269531 5.609375 -11.9375 C 5.546875 -11.613281 5.507812 -11.257812 5.5 -10.875 L 5.5 -1.0625 L 6.515625 -1.0625 L 6.515625 0 Z M 0.46875 0 "/></g></g></g><g fill="#4f83d1" fill-opacity="1"><g transform="translate(156.976052, 122.702942)"><g><path d="M 0.40625 0 L 0.40625 -1.0625 L 1.90625 -1.0625 L 1.90625 -14.1875 L 0.40625 -14.1875 L 0.40625 -15.25 L 5.40625 -15.25 L 5.40625 -1.0625 L 6.921875 -1.0625 L 6.921875 0 Z M 3.65625 -17.171875 C 3.03125 -17.171875 2.5 -17.390625 2.0625 -17.828125 C 1.625 -18.273438 1.40625 -18.816406 1.40625 -19.453125 C 1.40625 -20.066406 1.625 -20.59375 2.0625 -21.03125 C 2.5 -21.46875 3.03125 -21.6875 3.65625 -21.6875 C 4.269531 -21.6875 4.796875 -21.46875 5.234375 -21.03125 C 5.671875 -20.59375 5.890625 -20.066406 5.890625 -19.453125 C 5.890625 -18.816406 5.671875 -18.273438 5.234375 -17.828125 C 4.796875 -17.390625 4.269531 -17.171875 3.65625 -17.171875 Z M 3.65625 -17.171875 "/></g></g></g><g fill="#4f83d1" fill-opacity="1"><g transform="translate(164.274786, 122.702942)"><g><path d="M 5.859375 0.296875 C 5.085938 0.296875 4.390625 0.125 3.765625 -0.21875 C 3.148438 -0.570312 2.617188 -1.085938 2.171875 -1.765625 C 1.722656 -2.441406 1.378906 -3.273438 1.140625 -4.265625 C 0.898438 -5.253906 0.78125 -6.390625 0.78125 -7.671875 C 0.78125 -9.054688 0.929688 -10.238281 1.234375 -11.21875 C 1.546875 -12.207031 1.945312 -13.007812 2.4375 -13.625 C 2.9375 -14.25 3.476562 -14.707031 4.0625 -15 C 4.644531 -15.289062 5.21875 -15.4375 5.78125 -15.4375 C 6.445312 -15.4375 7.054688 -15.269531 7.609375 -14.9375 C 8.160156 -14.613281 8.640625 -14.148438 9.046875 -13.546875 C 9.453125 -12.941406 9.765625 -12.234375 9.984375 -11.421875 C 10.210938 -10.609375 10.328125 -9.710938 10.328125 -8.734375 C 10.328125 -8.523438 10.320312 -8.320312 10.3125 -8.125 C 10.3125 -7.9375 10.300781 -7.738281 10.28125 -7.53125 L 4.09375 -7.53125 L 4.09375 -8.59375 L 7 -8.59375 C 7 -10.03125 6.953125 -11.171875 6.859375 -12.015625 C 6.765625 -12.859375 6.628906 -13.457031 6.453125 -13.8125 C 6.273438 -14.175781 6.050781 -14.359375 5.78125 -14.359375 C 5.5 -14.359375 5.242188 -14.171875 5.015625 -13.796875 C 4.796875 -13.429688 4.617188 -12.789062 4.484375 -11.875 C 4.359375 -10.96875 4.296875 -9.707031 4.296875 -8.09375 C 4.296875 -6.875 4.328125 -5.8125 4.390625 -4.90625 C 4.460938 -4.007812 4.578125 -3.265625 4.734375 -2.671875 C 4.890625 -2.078125 5.09375 -1.632812 5.34375 -1.34375 C 5.59375 -1.050781 5.910156 -0.90625 6.296875 -0.90625 C 6.992188 -0.90625 7.546875 -1.082031 7.953125 -1.4375 C 8.367188 -1.800781 8.664062 -2.160156 8.84375 -2.515625 L 9.734375 -1.890625 C 9.503906 -1.347656 9.035156 -0.847656 8.328125 -0.390625 C 7.628906 0.0664062 6.804688 0.296875 5.859375 0.296875 Z M 5.859375 0.296875 "/></g></g></g></svg>